<svg width="163" height="164" viewBox="0 0 163 164" fill="none" xmlns="http://www.w3.org/2000/svg">
<path d="M37.6 0H124.7C145.5 0 162.3 16.8 162.3 37.6V125.6C162.3 146.4 145.5 163.2 124.7 163.2H37.6C16.8 163.2 0 146.4 0 125.6V37.6C0 16.8 16.9 0 37.6 0Z" fill="#00D54B"/>
<path d="M127.506 38.5127H106.412V34.2939C106.412 30.9373 105.079 27.7181 102.706 25.3446C100.332 22.9711 97.1129 21.6377 93.7562 21.6377H68.4437C65.0871 21.6377 61.8679 22.9711 59.4944 25.3446C57.1209 27.7181 55.7875 30.9373 55.7875 34.2939V38.5127H34.6937C33.5748 38.5127 32.5018 38.9572 31.7106 39.7483C30.9195 40.5395 30.475 41.6126 30.475 42.7314C30.475 43.8503 30.9195 44.9234 31.7106 45.7146C32.5018 46.5057 33.5748 46.9502 34.6937 46.9502H38.9125V122.888C38.9125 125.125 39.8014 127.272 41.3838 128.854C42.9661 130.436 45.1122 131.325 47.35 131.325H114.85C117.088 131.325 119.234 130.436 120.816 128.854C122.399 127.272 123.287 125.125 123.287 122.888V46.9502H127.506C128.625 46.9502 129.698 46.5057 130.489 45.7146C131.281 44.9234 131.725 43.8503 131.725 42.7314C131.725 41.6126 131.281 40.5395 130.489 39.7483C129.698 38.9572 128.625 38.5127 127.506 38.5127ZM72.6625 101.794C72.6625 102.913 72.218 103.986 71.4268 104.777C70.6357 105.568 69.5626 106.013 68.4437 106.013C67.3248 106.013 66.2518 105.568 65.4606 104.777C64.6694 103.986 64.225 102.913 64.225 101.794V68.0439C64.225 66.9251 64.6694 65.852 65.4606 65.0608C66.2518 64.2697 67.3248 63.8252 68.4437 63.8252C69.5626 63.8252 70.6357 64.2697 71.4268 65.0608C72.218 65.852 72.6625 66.9251 72.6625 68.0439V101.794ZM97.975 101.794C97.975 102.913 97.5305 103.986 96.7393 104.777C95.9482 105.568 94.8751 106.013 93.7562 106.013C92.6373 106.013 91.5643 105.568 90.7731 104.777C89.9819 103.986 89.5375 102.913 89.5375 101.794V68.0439C89.5375 66.9251 89.9819 65.852 90.7731 65.0608C91.5643 64.2697 92.6373 63.8252 93.7562 63.8252C94.8751 63.8252 95.9482 64.2697 96.7393 65.0608C97.5305 65.852 97.975 66.9251 97.975 68.0439V101.794ZM97.975 38.5127H64.225V34.2939C64.225 33.1751 64.6694 32.102 65.4606 31.3108C66.2518 30.5197 67.3248 30.0752 68.4437 30.0752H93.7562C94.8751 30.0752 95.9482 30.5197 96.7393 31.3108C97.5305 32.102 97.975 33.1751 97.975 34.2939V38.5127Z" fill="white"/>
<rect x="55.9" y="60" width="48.6" height="57.6" fill="white"/>
<rect x="61.6" y="60.2002" width="12" height="32" rx="6" fill="#00D54B"/>
<rect x="87.6" y="60.2002" width="12" height="32" rx="6" fill="#00D54B"/>
</svg>
