<svg width="749" height="169" viewBox="0 0 749 169" fill="none" xmlns="http://www.w3.org/2000/svg">
<path d="M37.6 0H124.7C145.5 0 162.3 16.8 162.3 37.6V125.6C162.3 146.4 145.5 163.2 124.7 163.2H37.6C16.8 163.2 0 146.4 0 125.6V37.6C0 16.8 16.9 0 37.6 0Z" fill="#00D54B"/>
<path d="M127.506 38.5127H106.413V34.2939C106.413 30.9373 105.079 27.7181 102.706 25.3446C100.332 22.9711 97.113 21.6377 93.7563 21.6377H68.4438C65.0872 21.6377 61.868 22.9711 59.4945 25.3446C57.121 27.7181 55.7876 30.9373 55.7876 34.2939V38.5127H34.6938C33.575 38.5127 32.5019 38.9572 31.7107 39.7483C30.9196 40.5395 30.4751 41.6126 30.4751 42.7314C30.4751 43.8503 30.9196 44.9234 31.7107 45.7146C32.5019 46.5057 33.575 46.9502 34.6938 46.9502H38.9126V122.888C38.9126 125.125 39.8015 127.272 41.3839 128.854C42.9662 130.436 45.1123 131.325 47.3501 131.325H114.85C117.088 131.325 119.234 130.436 120.816 128.854C122.399 127.272 123.288 125.125 123.288 122.888V46.9502H127.506C128.625 46.9502 129.698 46.5057 130.489 45.7146C131.281 44.9234 131.725 43.8503 131.725 42.7314C131.725 41.6126 131.281 40.5395 130.489 39.7483C129.698 38.9572 128.625 38.5127 127.506 38.5127ZM72.6626 101.794C72.6626 102.913 72.2181 103.986 71.427 104.777C70.6358 105.568 69.5627 106.013 68.4438 106.013C67.325 106.013 66.2519 105.568 65.4607 104.777C64.6696 103.986 64.2251 102.913 64.2251 101.794V68.0439C64.2251 66.9251 64.6696 65.852 65.4607 65.0608C66.2519 64.2697 67.325 63.8252 68.4438 63.8252C69.5627 63.8252 70.6358 64.2697 71.427 65.0608C72.2181 65.852 72.6626 66.9251 72.6626 68.0439V101.794ZM97.9751 101.794C97.9751 102.913 97.5306 103.986 96.7395 104.777C95.9483 105.568 94.8752 106.013 93.7563 106.013C92.6375 106.013 91.5644 105.568 90.7732 104.777C89.9821 103.986 89.5376 102.913 89.5376 101.794V68.0439C89.5376 66.9251 89.9821 65.852 90.7732 65.0608C91.5644 64.2697 92.6375 63.8252 93.7563 63.8252C94.8752 63.8252 95.9483 64.2697 96.7395 65.0608C97.5306 65.852 97.9751 66.9251 97.9751 68.0439V101.794ZM97.9751 38.5127H64.2251V34.2939C64.2251 33.1751 64.6696 32.102 65.4607 31.3108C66.2519 30.5197 67.325 30.0752 68.4438 30.0752H93.7563C94.8752 30.0752 95.9483 30.5197 96.7395 31.3108C97.5306 32.102 97.9751 33.1751 97.9751 34.2939V38.5127Z" fill="white"/>
<rect x="55.9001" y="60" width="48.6" height="57.6" fill="white"/>
<rect x="61.6001" y="60.2002" width="12" height="32" rx="6" fill="#00D54B"/>
<rect x="87.6001" y="60.2002" width="12" height="32" rx="6" fill="#00D54B"/>
<path d="M264.2 131.2H246.32V61.3602H223.88V45.8802H286.64V61.3602H264.2V131.2ZM316.58 68.2002C326.42 68.2002 332.66 75.8802 333.14 89.3202L319.58 93.0402C319.22 84.7602 316.34 80.5602 311.66 80.5602C305.78 80.5602 302.18 86.9202 302.18 97.4802V131.2H286.1V69.8802H299.18L301.22 80.3202H301.34C303.98 72.7602 309.74 68.2002 316.58 68.2002ZM354.726 132.64C343.206 132.64 335.286 125.92 335.286 115.36C335.286 104.32 343.686 97.1202 360.006 95.3202L369.486 94.1202C372.126 93.8802 374.046 92.2002 374.046 89.0802C374.046 83.2002 369.846 79.8402 363.966 79.8402C357.006 79.8402 352.566 85.2402 352.206 92.0802L337.206 89.3202C337.686 76.9602 348.246 67.9602 363.966 67.9602C379.926 67.9602 389.766 77.0802 389.766 91.6002V117.04C389.766 119.56 390.846 121 392.766 121C394.206 121 395.886 120.16 397.446 118.48L401.286 127.48C397.686 131.08 392.286 132.76 387.366 132.76C380.286 132.76 375.486 128.68 374.406 123.16L374.046 121.48H373.926C370.206 128.44 363.366 132.64 354.726 132.64ZM360.846 120.88C368.286 120.88 373.806 115.12 373.806 106.48V103.12L363.846 104.32C355.086 105.4 351.366 109 351.366 113.56C351.366 118.12 355.326 120.88 360.846 120.88ZM427.248 133.12C412.488 133.12 400.968 125.8 400.368 112.12L414.648 110.08C415.008 117.52 420.288 121.96 427.608 121.96C433.728 121.96 438.288 119.08 438.288 114.76C438.168 110.92 434.928 108.64 427.488 106.6L419.448 104.44C407.928 101.32 403.128 95.9202 403.128 87.0402C403.128 75.4002 412.608 68.0802 426.048 68.0802C438.408 68.0802 448.488 74.6802 449.568 86.6802L435.288 88.7202C434.928 82.3602 431.088 79.0002 425.568 79.0002C420.648 79.0002 417.288 82.0002 417.168 85.7202C417.168 89.3202 420.168 91.4802 427.008 93.5202L435.168 95.8002C447.528 99.1602 453.168 104.68 453.168 113.44C453.168 125.44 442.368 133.12 427.248 133.12ZM474.91 131.2H458.83V42.2802H474.91V79.7202H475.03C478.75 72.4002 485.47 68.3202 493.87 68.3202C504.91 68.3202 511.51 75.4002 511.51 87.6402V131.2H495.55V91.1202C495.55 85.0002 492.19 81.4002 486.79 81.4002C479.59 81.4002 474.91 86.4402 474.91 94.4802V131.2ZM554.976 131.2H536.856L563.976 45.8802H586.176L613.296 131.2H594.936L589.896 113.56H560.136L554.976 131.2ZM575.016 60.7602L563.136 100.36H586.896L575.256 60.7602H575.016ZM633.694 156.4H617.614V69.8802H631.414L633.214 80.3202H633.334C636.814 72.5202 643.774 68.2002 652.054 68.2002C666.694 68.2002 676.174 80.8002 676.174 100.6C676.174 120.4 666.694 132.88 652.174 132.88C643.894 132.88 637.414 128.68 633.814 121.24H633.694V156.4ZM646.534 118.96C654.814 118.96 660.094 111.76 660.094 100.6C660.094 89.3202 654.814 82.2402 646.534 82.2402C638.374 82.2402 633.094 89.4402 633.094 100.6C633.094 111.76 638.374 118.96 646.534 118.96ZM698.771 156.4H682.691V69.8802H696.491L698.291 80.3202H698.411C701.891 72.5202 708.851 68.2002 717.131 68.2002C731.771 68.2002 741.251 80.8002 741.251 100.6C741.251 120.4 731.771 132.88 717.251 132.88C708.971 132.88 702.491 128.68 698.891 121.24H698.771V156.4ZM711.611 118.96C719.891 118.96 725.171 111.76 725.171 100.6C725.171 89.3202 719.891 82.2402 711.611 82.2402C703.451 82.2402 698.171 89.4402 698.171 100.6C698.171 111.76 703.451 118.96 711.611 118.96Z" fill="#00D54B"/>
</svg>
